<svg width="33" height="31" viewBox="0 0 33 31" fill="none" xmlns="http://www.w3.org/2000/svg">
<path d="M16.1533 30.25C25.0745 30.25 32.3066 23.4783 32.3066 15.125C32.3066 6.77169 25.0745 0 16.1533 0C7.23207 0 0 6.77169 0 15.125C0 23.4783 7.23207 30.25 16.1533 30.25Z" fill="#FE9235"/>
<path d="M13.599 18.0518V17.293C13.599 16.8281 13.6639 16.418 13.7938 16.0625C13.9237 15.7002 14.1322 15.3584 14.4193 15.0371C14.7064 14.709 15.0858 14.374 15.5575 14.0322C15.9813 13.7314 16.3197 13.4614 16.5726 13.2222C16.8324 12.9829 17.0204 12.7471 17.1366 12.5146C17.2596 12.2754 17.3212 12.0054 17.3212 11.7046C17.3212 11.2603 17.1571 10.9219 16.829 10.6895C16.5009 10.457 16.0428 10.3408 15.455 10.3408C14.8671 10.3408 14.2826 10.4331 13.7015 10.6177C13.1273 10.8022 12.5428 11.0449 11.9481 11.3457L10.8304 9.1001C11.514 8.71729 12.2557 8.40967 13.0555 8.17725C13.8553 7.93799 14.7303 7.81836 15.6805 7.81836C17.1434 7.81836 18.2748 8.17041 19.0746 8.87451C19.8812 9.57178 20.2845 10.4604 20.2845 11.5405C20.2845 12.1147 20.1923 12.6138 20.0077 13.0376C19.83 13.4546 19.5565 13.8442 19.1874 14.2065C18.8251 14.562 18.3705 14.938 17.8236 15.3345C17.4135 15.6353 17.099 15.8882 16.8802 16.0933C16.6615 16.2983 16.5111 16.5034 16.4291 16.7085C16.3539 16.9067 16.3163 17.1494 16.3163 17.4365V18.0518H13.599ZM13.2709 21.5586C13.2709 20.916 13.4452 20.4648 13.7938 20.2051C14.1493 19.9453 14.5765 19.8154 15.0756 19.8154C15.5609 19.8154 15.9779 19.9453 16.3265 20.2051C16.682 20.4648 16.8597 20.916 16.8597 21.5586C16.8597 22.1738 16.682 22.6182 16.3265 22.8916C15.9779 23.165 15.5609 23.3018 15.0756 23.3018C14.5765 23.3018 14.1493 23.165 13.7938 22.8916C13.4452 22.6182 13.2709 22.1738 13.2709 21.5586Z" fill="white"/>
</svg>
